<svg width="223" height="204" viewBox="0 0 223 204" fill="none" xmlns="http://www.w3.org/2000/svg">
<path d="M4.54097 9.08197C2.04695 9.08197 0 7.05852 0 4.54098C0 2.04697 2.02343 0 4.54097 0C7.05851 0 9.08193 2.02344 9.08193 4.54098C9.08193 7.03499 7.03498 9.08197 4.54097 9.08197Z" fill="#FFD523"/>
<path d="M47.2219 9.08197C44.7279 9.08197 42.6809 7.05852 42.6809 4.54098C42.6809 2.04697 44.7043 0 47.2219 0C49.7159 0 51.7628 2.02344 51.7628 4.54098C51.7393 7.03499 49.7159 9.08197 47.2219 9.08197Z" fill="#FFD523"/>
<path d="M89.8784 9.08197C87.3844 9.08197 85.3374 7.05852 85.3374 4.54098C85.3374 2.04697 87.3608 0 89.8784 0C92.3724 0 94.4193 2.02344 94.4193 4.54098C94.4193 7.03499 92.3959 9.08197 89.8784 9.08197Z" fill="#FFD523"/>
<path d="M132.56 9.08197C130.066 9.08197 128.019 7.05852 128.019 4.54098C128.019 2.04697 130.042 0 132.56 0C135.054 0 137.101 2.02344 137.101 4.54098C137.101 7.03499 135.054 9.08197 132.56 9.08197Z" fill="#FFD523"/>
<path d="M175.216 9.08197C172.722 9.08197 170.675 7.05852 170.675 4.54098C170.675 2.04697 172.698 0 175.216 0C177.71 0 179.757 2.02344 179.757 4.54098C179.757 7.03499 177.733 9.08197 175.216 9.08197Z" fill="#FFD523"/>
<path d="M217.897 9.08197C215.403 9.08197 213.356 7.05852 213.356 4.54098C213.356 2.04697 215.379 0 217.897 0C220.414 0 222.438 2.02344 222.438 4.54098C222.438 7.03499 220.391 9.08197 217.897 9.08197Z" fill="#FFD523"/>
<path d="M4.54097 47.998C2.04695 47.998 0 45.9745 0 43.457C0 40.963 2.02343 38.916 4.54097 38.916C7.05851 38.916 9.08193 40.9395 9.08193 43.457C9.08193 45.951 7.03498 47.998 4.54097 47.998Z" fill="#FFD523"/>
<path d="M47.2219 47.998C44.7279 47.998 42.6809 45.9745 42.6809 43.457C42.6809 40.963 44.7043 38.916 47.2219 38.916C49.7159 38.916 51.7628 40.9395 51.7628 43.457C51.7393 45.951 49.7159 47.998 47.2219 47.998Z" fill="#FFD523"/>
<path d="M89.8784 47.998C87.3844 47.998 85.3374 45.9745 85.3374 43.457C85.3374 40.963 87.3608 38.916 89.8784 38.916C92.3724 38.916 94.4193 40.9395 94.4193 43.457C94.4193 45.951 92.3959 47.998 89.8784 47.998Z" fill="#FFD523"/>
<path d="M132.56 47.998C130.066 47.998 128.019 45.9745 128.019 43.457C128.019 40.963 130.042 38.916 132.56 38.916C135.054 38.916 137.101 40.9395 137.101 43.457C137.101 45.951 135.054 47.998 132.56 47.998Z" fill="#FFD523"/>
<path d="M175.216 47.998C172.722 47.998 170.675 45.9745 170.675 43.457C170.675 40.963 172.698 38.916 175.216 38.916C177.71 38.916 179.757 40.9395 179.757 43.457C179.757 45.951 177.733 47.998 175.216 47.998Z" fill="#FFD523"/>
<path d="M217.897 47.998C215.403 47.998 213.356 45.9745 213.356 43.457C213.356 40.963 215.379 38.916 217.897 38.916C220.414 38.916 222.438 40.9395 222.438 43.457C222.438 45.951 220.391 47.998 217.897 47.998Z" fill="#FFD523"/>
<path d="M4.54097 86.8906C2.04695 86.8906 0 84.8671 0 82.3496C0 79.8555 2.02343 77.8086 4.54097 77.8086C7.05851 77.8086 9.08193 79.832 9.08193 82.3496C9.08193 84.8671 7.03498 86.8906 4.54097 86.8906Z" fill="#FFD523"/>
<path d="M47.2219 86.8906C44.7279 86.8906 42.6809 84.8671 42.6809 82.3496C42.6809 79.8555 44.7043 77.8086 47.2219 77.8086C49.7159 77.8086 51.7628 79.832 51.7628 82.3496C51.7393 84.8671 49.7159 86.8906 47.2219 86.8906Z" fill="#FFD523"/>
<path d="M89.8784 86.8906C87.3844 86.8906 85.3374 84.8671 85.3374 82.3496C85.3374 79.8555 87.3608 77.8086 89.8784 77.8086C92.3724 77.8086 94.4193 79.832 94.4193 82.3496C94.4193 84.8671 92.3959 86.8906 89.8784 86.8906Z" fill="#FFD523"/>
<path d="M132.56 86.8906C130.066 86.8906 128.019 84.8671 128.019 82.3496C128.019 79.8555 130.042 77.8086 132.56 77.8086C135.054 77.8086 137.101 79.832 137.101 82.3496C137.101 84.8671 135.054 86.8906 132.56 86.8906Z" fill="#FFD523"/>
<path d="M175.216 86.8906C172.722 86.8906 170.675 84.8671 170.675 82.3496C170.675 79.8555 172.698 77.8086 175.216 77.8086C177.71 77.8086 179.757 79.832 179.757 82.3496C179.757 84.8671 177.733 86.8906 175.216 86.8906Z" fill="#FFD523"/>
<path d="M217.897 86.8906C215.403 86.8906 213.356 84.8671 213.356 82.3496C213.356 79.8555 215.379 77.8086 217.897 77.8086C220.414 77.8086 222.438 79.832 222.438 82.3496C222.438 84.8671 220.391 86.8906 217.897 86.8906Z" fill="#FFD523"/>
<path d="M4.54097 125.807C2.04695 125.807 0 123.783 0 121.266C0 118.772 2.02343 116.725 4.54097 116.725C7.05851 116.725 9.08193 118.748 9.08193 121.266C9.08193 123.76 7.03498 125.807 4.54097 125.807Z" fill="#FFD523"/>
<path d="M47.2219 125.807C44.7279 125.807 42.6809 123.783 42.6809 121.266C42.6809 118.772 44.7043 116.725 47.2219 116.725C49.7159 116.725 51.7628 118.748 51.7628 121.266C51.7393 123.76 49.7159 125.807 47.2219 125.807Z" fill="#FFD523"/>
<path d="M89.8784 125.807C87.3844 125.807 85.3374 123.783 85.3374 121.266C85.3374 118.772 87.3608 116.725 89.8784 116.725C92.3724 116.725 94.4193 118.748 94.4193 121.266C94.4193 123.76 92.3959 125.807 89.8784 125.807Z" fill="#FFD523"/>
<path d="M132.56 125.807C130.066 125.807 128.019 123.783 128.019 121.266C128.019 118.772 130.042 116.725 132.56 116.725C135.054 116.725 137.101 118.748 137.101 121.266C137.101 123.76 135.054 125.807 132.56 125.807Z" fill="#FFD523"/>
<path d="M175.216 125.807C172.722 125.807 170.675 123.783 170.675 121.266C170.675 118.772 172.698 116.725 175.216 116.725C177.71 116.725 179.757 118.748 179.757 121.266C179.757 123.76 177.733 125.807 175.216 125.807Z" fill="#FFD523"/>
<path d="M217.897 125.807C215.403 125.807 213.356 123.783 213.356 121.266C213.356 118.772 215.379 116.725 217.897 116.725C220.414 116.725 222.438 118.748 222.438 121.266C222.438 123.76 220.391 125.807 217.897 125.807Z" fill="#FFD523"/>
<path d="M4.54097 164.722C2.04695 164.722 0 162.699 0 160.181C0 157.687 2.02343 155.64 4.54097 155.64C7.05851 155.64 9.08193 157.664 9.08193 160.181C9.08193 162.675 7.03498 164.722 4.54097 164.722Z" fill="#FFD523"/>
<path d="M47.2219 164.722C44.7279 164.722 42.6809 162.699 42.6809 160.181C42.6809 157.687 44.7043 155.64 47.2219 155.64C49.7159 155.64 51.7628 157.664 51.7628 160.181C51.7393 162.675 49.7159 164.722 47.2219 164.722Z" fill="#FFD523"/>
<path d="M89.8784 164.722C87.3844 164.722 85.3374 162.699 85.3374 160.181C85.3374 157.687 87.3608 155.64 89.8784 155.64C92.3724 155.64 94.4193 157.664 94.4193 160.181C94.4193 162.675 92.3959 164.722 89.8784 164.722Z" fill="#FFD523"/>
<path d="M132.56 164.722C130.066 164.722 128.019 162.699 128.019 160.181C128.019 157.687 130.042 155.64 132.56 155.64C135.054 155.64 137.101 157.664 137.101 160.181C137.101 162.675 135.054 164.722 132.56 164.722Z" fill="#FFD523"/>
<path d="M175.216 164.722C172.722 164.722 170.675 162.699 170.675 160.181C170.675 157.687 172.698 155.64 175.216 155.64C177.71 155.64 179.757 157.664 179.757 160.181C179.757 162.675 177.733 164.722 175.216 164.722Z" fill="#FFD523"/>
<path d="M217.897 164.722C215.403 164.722 213.356 162.699 213.356 160.181C213.356 157.687 215.379 155.64 217.897 155.64C220.414 155.64 222.438 157.664 222.438 160.181C222.438 162.675 220.391 164.722 217.897 164.722Z" fill="#FFD523"/>
<path d="M4.54097 203.615C2.04695 203.615 0 201.591 0 199.074C0 196.58 2.02343 194.533 4.54097 194.533C7.05851 194.533 9.08193 196.556 9.08193 199.074C9.08193 201.591 7.03498 203.615 4.54097 203.615Z" fill="#FFD523"/>
<path d="M47.2219 203.615C44.7279 203.615 42.6809 201.591 42.6809 199.074C42.6809 196.58 44.7043 194.533 47.2219 194.533C49.7159 194.533 51.7628 196.556 51.7628 199.074C51.7393 201.591 49.7159 203.615 47.2219 203.615Z" fill="#FFD523"/>
<path d="M89.8784 203.615C87.3844 203.615 85.3374 201.591 85.3374 199.074C85.3374 196.58 87.3608 194.533 89.8784 194.533C92.3724 194.533 94.4193 196.556 94.4193 199.074C94.4193 201.591 92.3959 203.615 89.8784 203.615Z" fill="#FFD523"/>
<path d="M132.56 203.615C130.066 203.615 128.019 201.591 128.019 199.074C128.019 196.58 130.042 194.533 132.56 194.533C135.054 194.533 137.101 196.556 137.101 199.074C137.101 201.591 135.054 203.615 132.56 203.615Z" fill="#FFD523"/>
<path d="M175.216 203.615C172.722 203.615 170.675 201.591 170.675 199.074C170.675 196.58 172.698 194.533 175.216 194.533C177.71 194.533 179.757 196.556 179.757 199.074C179.757 201.591 177.733 203.615 175.216 203.615Z" fill="#FFD523"/>
<path d="M217.897 203.615C215.403 203.615 213.356 201.591 213.356 199.074C213.356 196.58 215.379 194.533 217.897 194.533C220.414 194.533 222.438 196.556 222.438 199.074C222.438 201.591 220.391 203.615 217.897 203.615Z" fill="#FFD523"/>
</svg>
